<svg width="500" height="975" viewBox="0 0 500 975" fill="none" xmlns="http://www.w3.org/2000/svg">
<path d="M-175.428 290.458C-198.669 342.562 -330.886 283.583 -354.188 335.775C-377.49 387.968 -309.768 418.059 -333.01 470.163C-356.252 522.268 -416.412 561.813 -395.17 606.912C-364.447 671.817 -293.566 613.525 -232.987 640.557C-172.408 667.589 -173.757 648.834 -113.196 675.854C-52.6346 702.874 -103.523 817.021 -42.9618 844.041C-19.9988 854.295 7.89176 822.533 24.3051 803.84C41.3901 784.316 50.9287 757.122 66.3794 735.576C73.7291 725.332 84.3869 712.632 95.7264 709.224C111.072 704.714 120.141 719.053 130.227 727.688C152.907 746.909 188.983 732.7 202.929 699.182L203.416 698.019C213.761 672.925 237.287 657.373 259.244 660.693C302.037 667.16 338.408 668.61 347.26 648.713C370.616 596.48 325.33 576.281 348.554 524.165C371.778 472.048 290.227 508.351 263.381 438.953C248.041 399.291 281.761 369.379 287.144 364.42C305.901 347.203 345.879 318.816 323.234 308.702C262.655 281.67 258.693 330.565 198.102 303.551C137.511 276.536 160.982 224.021 100.386 196.977C39.789 169.933 27.7678 102.738 13.8116 177.948C3.51598 233.267 -152.186 238.353 -175.428 290.458Z" stroke="#999999" stroke-width="0.84" stroke-miterlimit="10"/>
<path d="M89.6561 227.304C49.011 209.07 32.9736 170.426 22.0031 181.209C18.4218 184.744 15.4183 193.576 12.3426 210.126C6.47467 241.795 -52.2238 255.428 -99.396 272.954C-125.905 282.876 -148.673 294.044 -156.179 310.657C-163.685 327.271 -183.923 331.088 -207.614 331.431C-249.58 332.008 -302.491 320.987 -315.894 350.696C-327.653 376.912 -313.481 396.989 -302.703 417.84C-294.392 433.852 -288.101 450.365 -297.051 470.557C-298.278 473.329 -299.635 476.064 -301.062 478.751C-323.823 521.147 -370.316 554.827 -352.502 592.572C-325.222 650.371 -262.36 598.664 -208.466 622.873C-196.109 628.713 -183.156 633.196 -169.833 636.245C-149.56 640.554 -138.334 638.178 -101.757 654.477C-47.7324 678.569 -92.8843 780.155 -38.9121 804.211C-18.4096 813.348 6.48412 785.134 21.0766 768.496C36.3815 751.082 44.8795 726.84 58.6536 707.629C65.1863 698.504 74.693 687.183 84.7515 684.214C87.2243 683.459 89.8338 683.263 92.3915 683.64C94.9491 684.017 97.3912 684.958 99.5412 686.393C105.42 689.98 110.334 696.106 115.641 700.566C135.926 717.631 168.079 705.044 180.573 675.229C180.777 674.931 180.859 674.548 181.023 674.196C185.149 663.967 192.1 655.123 201.064 648.697C209.621 642.39 220.267 639.598 230.818 640.893C268.997 646.6 301.378 647.924 309.218 630.069C329.62 583.58 289.886 565.222 310.429 518.83C330.972 472.438 258.554 504.674 234.672 442.931C221.038 407.636 251.008 381.014 255.8 376.58C272.443 361.243 307.995 335.967 287.869 326.959C233.921 302.868 230.339 346.346 176.485 322.268C122.631 298.189 143.474 251.435 89.6561 227.304Z" stroke="#999999" stroke-width="0.97" stroke-miterlimit="10"/>
<path d="M78.7833 257.765C43.1434 241.643 29.1333 207.613 19.3369 217.058C16.1756 220.054 13.4796 227.91 10.7829 242.475C5.59332 270.402 -45.7191 282.745 -87.1382 298.275C-110.45 307.033 -130.512 316.699 -137.211 331.078C-143.909 345.457 -161.703 348.833 -182.542 349.194C-219.428 349.739 -266.058 339.794 -277.934 365.955C-288.371 388.922 -275.895 406.651 -266.449 424.963C-259.184 439.073 -253.636 453.581 -261.439 471.307C-262.514 473.744 -263.672 476.151 -264.93 478.515C-284.75 515.674 -325.768 545.542 -310.204 578.546C-286.285 629.194 -231.471 584.155 -184.162 605.506C-173.333 610.652 -161.983 614.618 -150.306 617.336C-132.548 621.136 -122.643 619.145 -90.6011 633.474C-43.2198 654.72 -82.498 743.658 -35.1444 764.757C-17.0849 772.788 4.68903 748.037 17.5781 733.51C31.1325 718.201 38.5483 696.933 50.6282 680.046C56.3734 672.032 64.7291 662.091 73.5908 659.437C75.7598 658.774 78.0486 658.597 80.2937 658.921C82.5387 659.245 84.6844 660.061 86.5772 661.311C91.7411 664.435 96.0802 669.78 100.71 673.57C118.62 688.414 146.813 677.503 157.855 651.39L158.239 650.491C161.923 641.53 168.07 633.796 175.967 628.182C183.487 622.622 192.852 620.152 202.137 621.279C235.713 626.208 264.11 627.358 270.902 611.598C288.535 570.775 254.128 554.284 272.127 513.53C290.125 472.775 226.704 501.03 205.815 446.937C193.869 415.997 220.072 392.654 224.273 388.743C238.72 375.181 269.963 353.146 252.339 345.232C205.222 324.09 202.134 362.023 155.005 340.898C107.877 319.774 125.936 278.855 78.7833 257.765Z" stroke="#999999" stroke-width="1.1" stroke-miterlimit="10"/>
<path d="M67.9711 288.138C37.2698 274.262 25.4239 244.759 16.7914 252.73C13.9596 255.358 11.6376 262.103 9.32636 274.635C4.85033 298.845 -38.9937 309.928 -74.7115 323.35C-94.8253 330.943 -112.14 339.007 -118.081 351.376C-124.022 363.745 -139.339 366.443 -157.314 366.804C-189.259 367.482 -229.417 358.485 -239.813 381.015C-248.838 400.639 -238.076 416.162 -230.046 431.905C-223.801 444.077 -218.996 456.58 -225.664 471.857C-226.558 473.954 -227.564 476.026 -228.635 478.08C-245.561 509.995 -281.076 536.046 -267.709 564.346C-247.167 607.829 -200.481 569.534 -159.927 588.014C-150.625 592.468 -140.871 595.911 -130.834 598.285C-115.551 601.628 -107.009 599.969 -79.4774 612.293C-38.6807 630.682 -72.1037 707.037 -31.428 725.188C-15.829 732.103 2.98325 710.923 14.0219 698.458C25.7027 685.168 32.1177 666.982 42.557 652.378C47.5092 645.448 54.6844 636.891 62.4426 634.643C64.3078 634.07 66.2761 633.913 68.2084 634.184C70.1408 634.455 71.9901 635.147 73.6258 636.211C78.1046 638.865 81.8391 643.435 85.808 646.721C101.299 659.445 125.557 650.097 135.184 627.711C135.34 627.482 135.391 627.182 135.512 626.929C138.724 619.226 144.034 612.581 150.839 607.75C157.329 602.968 165.396 600.834 173.401 601.782C202.393 605.946 226.811 606.952 232.55 593.257C247.309 558.026 218.405 543.446 233.888 508.401C249.371 473.355 194.87 497.552 176.992 451.119C166.534 424.45 189.023 404.421 192.632 401.034C205.031 389.372 231.694 370.369 216.672 363.591C176.286 345.432 173.579 377.949 133.235 359.69C92.8913 341.431 108.35 306.421 67.9711 288.138Z" stroke="#999999" stroke-width="1.23" stroke-miterlimit="10"/>
<path d="M57.1399 318.576C31.4022 306.835 21.5846 281.869 14.1734 288.509C11.719 290.699 9.75903 296.35 7.80274 306.932C4.08739 327.431 -32.3706 337.224 -62.3398 348.544C-79.3154 354.983 -93.9429 361.61 -99.0175 371.734C-104.092 381.857 -117.012 384.106 -132.122 384.468C-159.043 385.232 -192.829 377.217 -201.722 396.158C-209.45 412.644 -200.399 425.654 -193.643 438.925C-188.42 449.159 -184.37 459.674 -189.861 472.48C-190.633 474.248 -191.44 475.992 -192.359 477.711C-206.374 504.395 -236.355 526.622 -225.215 550.223C-208.05 586.542 -169.419 554.885 -135.563 570.559C-127.797 574.34 -119.644 577.267 -111.246 579.289C-98.4555 582.164 -91.2581 580.848 -68.2489 591.185C-34.0422 606.687 -61.7285 670.482 -27.5402 685.558C-14.3841 691.368 1.3666 673.717 10.6316 663.315C20.6156 652.088 25.9603 636.86 34.6572 624.649C38.8045 618.819 44.8111 611.629 51.2606 609.672C52.8314 609.181 54.4914 609.042 56.122 609.267C57.7526 609.491 59.3135 610.073 60.6932 610.97C64.387 613.113 67.6048 616.968 70.9609 619.679C83.9986 630.258 104.374 622.509 112.549 603.826C112.682 603.632 112.814 603.439 112.823 603.162C115.567 596.717 120.055 591.166 125.784 587.136C131.23 583.097 138.009 581.281 144.745 582.057C169.139 585.472 189.556 586.293 194.187 574.781C206.136 545.16 182.684 532.456 195.433 503.022C208.183 473.588 162.972 493.902 147.983 455.047C139.436 432.86 158.134 416.067 161.152 413.205C171.449 403.406 193.767 387.62 181.189 381.871C147.576 366.595 145.321 393.591 111.642 378.373C77.9637 363.156 90.8057 333.888 57.1399 318.576Z" stroke="#999999" stroke-width="1.35" stroke-miterlimit="10"/>
<path d="M46.352 348.914C25.5954 339.32 17.8588 318.927 11.6633 324.206C9.59844 325.94 7.97641 330.532 6.38155 339.116C3.29188 355.838 -25.622 364.449 -49.8778 373.643C-63.6318 378.882 -75.5777 384.042 -79.8164 392.004C-84.055 399.965 -94.5643 401.671 -106.835 402.067C-128.73 402.84 -156.146 395.886 -163.595 411.324C-170.042 424.508 -162.634 435.206 -157.222 445.956C-153.033 454.27 -149.742 462.768 -154.094 473.155C-154.702 474.57 -155.34 475.991 -156.06 477.382C-167.193 498.84 -191.652 517.262 -182.745 536.135C-168.957 565.29 -138.441 540.358 -111.217 553.169C-104.978 556.242 -98.429 558.642 -91.6817 560.327C-81.3654 562.747 -75.5063 561.727 -57.0789 570.088C-29.514 582.59 -51.2804 633.821 -23.7237 646.033C-13.0698 650.748 -0.29737 636.58 7.16441 628.246C15.3145 619.17 19.6603 606.87 26.6926 596.977C29.9525 592.216 34.8784 586.455 40.1542 584.855C41.419 584.455 42.7555 584.334 44.0717 584.5C45.3879 584.666 46.6523 585.116 47.778 585.818C50.7287 587.9 53.5153 590.205 56.1135 592.713C66.7392 601.124 83.1912 594.998 89.9147 580.017C90.023 579.859 90.1192 579.718 90.2274 579.56C92.5008 574.368 96.1581 569.9 100.799 566.646C105.234 563.399 110.723 561.929 116.187 562.527C135.967 565.182 152.405 565.859 155.989 556.443C165.103 532.467 147.085 521.625 157.183 497.911C167.2 474.502 131.115 490.382 119.148 459.247C112.324 441.44 127.255 427.925 129.682 425.587C137.877 417.652 155.786 404.988 145.662 400.404C118.757 388.07 116.948 409.59 90.0117 397.338C63.0756 385.086 73.2742 361.337 46.352 348.914Z" stroke="#999999" stroke-width="1.48" stroke-miterlimit="10"/>
<path d="M35.5393 379.288C19.7519 371.857 14.073 355.995 9.02856 359.895C7.29863 361.291 6.07472 364.737 4.87089 371.318C2.4892 384.292 -18.9979 391.667 -37.5228 398.748C-48.0617 402.833 -57.3371 406.468 -60.7519 412.284C-64.1666 418.099 -72.2536 419.245 -81.637 419.683C-98.5364 420.472 -119.557 414.541 -125.528 426.425C-130.535 436.414 -124.969 444.716 -120.825 452.869C-117.656 459.245 -115.121 465.755 -118.337 473.694C-118.776 474.786 -119.245 475.885 -119.783 476.935C-128.022 493.15 -146.959 507.767 -140.267 521.923C-129.84 543.926 -107.415 525.685 -86.8812 535.643C-82.1685 538.029 -77.2122 539.901 -72.0983 541.224C-64.2862 543.193 -59.7599 542.5 -45.8023 548.909C-24.7396 558.584 -40.7924 597.213 -19.8359 606.403C-11.6129 609.995 -1.914 599.374 3.7917 593.114C10.1265 586.124 13.4492 576.787 18.7753 569.235C21.2654 565.599 25.0052 561.193 29.0545 559.914C30.0166 559.603 31.034 559.498 32.0393 559.609C33.0447 559.719 34.0153 560.041 34.8871 560.554C37.1467 562.097 39.2889 563.805 41.2959 565.665C49.5272 571.921 62.0379 567.405 67.3099 556.126L67.5505 555.775C69.3438 551.804 72.1852 548.397 75.7694 545.92C79.1803 543.442 83.384 542.307 87.5786 542.73C102.756 544.608 115.204 545.158 117.71 537.843C124.008 519.526 111.447 510.511 119.038 492.305C126.391 474.632 99.3376 486.556 90.4184 462.953C85.288 449.531 96.4821 439.289 98.3362 437.41C104.465 431.286 117.918 421.815 110.349 418.284C90.1809 408.886 88.7941 424.967 68.6496 415.533C48.5052 406.1 55.7299 388.804 35.5393 379.288Z" stroke="#999999" stroke-width="1.61" stroke-miterlimit="10"/>
<path d="M24.7325 409.69C13.9262 404.406 10.3052 393.076 6.44688 395.62C5.16661 396.473 4.18539 398.923 3.3661 403.549C1.71645 412.741 -12.3209 418.92 -25.1323 423.875C-32.5088 426.772 -38.9436 428.971 -41.6343 432.599C-44.3251 436.227 -49.8899 436.855 -56.4211 437.311C-68.3016 438.156 -82.9155 433.232 -87.4244 441.55C-91.0633 448.296 -87.2276 454.226 -84.5108 459.905C-82.3807 464.331 -80.5707 468.848 -82.6407 474.32C-82.9277 475.078 -83.2267 475.854 -83.5784 476.594C-88.9409 487.552 -102.357 498.364 -97.8916 507.821C-90.8473 522.631 -76.5009 511.063 -62.6231 518.192C-59.4394 519.888 -56.0851 521.242 -52.6163 522.232C-47.2964 523.733 -44.1325 523.371 -34.6798 527.805C-20.1951 534.576 -30.4575 560.603 -16.0901 566.829C-10.322 569.334 -3.64311 562.218 0.259341 558.027C4.81405 553.146 7.08411 546.779 10.7336 541.562C12.3876 538.73 14.8453 536.452 17.7951 535.018C18.4535 534.793 19.1513 534.706 19.8447 534.764C20.5381 534.821 21.2121 535.021 21.8244 535.352C23.4086 536.333 24.9116 537.44 26.3187 538.662C32.1259 542.767 40.7074 539.844 44.5455 532.28C44.6059 532.21 44.6583 532.133 44.7019 532.051C46.0372 529.372 48.0406 527.083 50.5187 525.403C52.8866 523.746 55.7625 522.974 58.6422 523.225C69.2401 524.366 77.6918 524.761 79.2031 519.577C82.7028 506.929 75.5696 499.748 80.4842 487.296C85.2154 475.337 67.2961 483.116 61.2927 467.238C57.8678 458.184 65.2828 451.237 66.5392 449.93C70.5129 445.71 79.5803 439.326 74.5318 436.901C61.1004 430.439 60.1299 441.051 46.68 434.654C33.2301 428.256 38.1981 416.253 24.7325 409.69Z" stroke="#999999" stroke-width="1.74" stroke-miterlimit="10"/>
<path d="M13.9202 440.063C8.07747 436.914 6.52541 430.174 3.8652 431.346C2.94485 431.748 2.35428 433.175 1.89089 435.774C0.895559 441.26 -5.64285 446.098 -12.7123 448.998C-16.9264 450.705 -20.6777 451.285 -22.5103 452.868C-24.343 454.452 -27.5142 454.448 -31.1932 454.922C-38.0548 455.823 -46.2499 451.888 -49.3092 456.657C-51.5495 460.155 -49.4737 463.718 -48.0664 466.901C-46.634 469.326 -46.1878 472.209 -46.82 474.954C-46.9552 475.377 -47.0728 475.813 -47.2432 476.212C-49.7414 481.933 -57.6179 488.951 -55.3854 493.68C-51.7306 501.343 -45.4632 496.449 -38.2586 500.737C-36.5994 501.739 -34.8428 502.57 -33.0159 503.218C-29.7192 504.064 -26.5089 505.217 -23.4269 506.662C-15.5267 510.575 -19.9691 523.996 -12.2084 527.246C-8.90083 528.633 -5.24829 525.07 -3.13705 522.929C-0.350457 520.141 0.866936 516.743 2.8277 513.88C3.75737 512.294 5.12182 511.007 6.75959 510.173C7.48855 509.92 8.28363 509.934 9.00319 510.212C9.90441 510.641 10.7674 511.145 11.5828 511.721C13.3965 512.628 15.4894 512.802 17.4283 512.209C19.3672 511.615 21.0035 510.298 21.9984 508.531L22.0826 508.408C22.9472 506.997 24.1138 505.796 25.4983 504.89C26.8442 503.949 28.4631 503.479 30.1035 503.553C36.0869 503.935 40.5591 504.262 40.9238 501.054C41.7412 494.208 39.9251 488.758 42.2304 481.925C44.3812 475.656 35.4941 479.402 32.4546 471.179C30.7353 466.493 34.4008 462.835 35.0485 462.04C36.9434 459.725 41.4966 456.392 39.05 455.104C32.3436 451.595 31.8071 456.75 25.0767 453.277C18.3463 449.803 20.6783 443.685 13.9202 440.063Z" stroke="#999999" stroke-width="1.87" stroke-miterlimit="10"/>
<path d="M3.94599 476.636C3.24731 475.358 3.80635 471.715 3.05497 470.401C2.3036 469.086 2.68166 467.178 1.24271 467.018C-0.850984 466.797 1.4448 473.091 -0.386715 474.108C-2.21823 475.125 -4.19873 471.498 -6.04228 472.532C-7.88583 473.566 -9.42184 470.76 -11.2709 471.764C-11.9665 472.139 -11.8088 473.228 -11.7166 473.885C-11.5367 474.547 -11.3079 475.196 -11.032 475.824C-11.5907 477.102 -12.2457 478.336 -12.9912 479.514C-12.6206 480.104 -15.0675 482.17 -13.6404 484.231C-12.8492 485.329 -11.8146 486.229 -10.6176 486.86C-9.42067 487.492 -8.09378 487.838 -6.74081 487.872C-4.92132 486.872 -5.9272 486.08 -4.09568 485.064C-2.26417 484.047 -1.54794 485.338 0.301146 484.333C2.15023 483.329 3.884 484 2.48991 482.606C1.60526 481.562 4.64466 477.915 3.94599 476.636Z" stroke="#999999" stroke-width="2" stroke-miterlimit="10"/>
</svg>
