<svg width="38" height="11" fill="none" xmlns="http://www.w3.org/2000/svg"><path d="M.154 10V8.208c.579.084 1.013-.033 1.302-.35.29-.317.434-.938.434-1.862V.2h6.664V10H6.636V2.048H3.808V5.94c0 .85-.103 1.563-.308 2.142-.205.579-.49 1.008-.854 1.288-.355.28-.737.467-1.148.56-.401.093-.85.117-1.344.07zm18.463-1.274c-.99.98-2.193 1.47-3.612 1.47s-2.623-.49-3.612-1.47c-.98-.99-1.47-2.198-1.47-3.626s.49-2.632 1.47-3.612c.99-.99 2.193-1.484 3.612-1.484s2.623.495 3.612 1.484c.99.98 1.484 2.184 1.484 3.612s-.495 2.637-1.484 3.626zM12.75 7.41c.607.597 1.358.896 2.254.896.896 0 1.647-.299 2.254-.896.607-.607.91-1.377.91-2.31s-.303-1.703-.91-2.31-1.358-.91-2.254-.91c-.896 0-1.647.303-2.254.91s-.91 1.377-.91 2.31.303 1.703.91 2.31zM27.03.2v1.848h-3.64V10h-1.932V.2h5.572zm8.717 8.526c-.99.98-2.194 1.47-3.612 1.47-1.419 0-2.623-.49-3.612-1.47-.98-.99-1.47-2.198-1.47-3.626s.49-2.632 1.47-3.612c.99-.99 2.193-1.484 3.612-1.484 1.418 0 2.622.495 3.612 1.484.99.98 1.484 2.184 1.484 3.612s-.495 2.637-1.484 3.626zM29.882 7.41c.606.597 1.358.896 2.254.896.896 0 1.647-.299 2.254-.896.606-.607.91-1.377.91-2.31s-.303-1.703-.91-2.31-1.358-.91-2.254-.91c-.896 0-1.648.303-2.254.91-.607.607-.91 1.377-.91 2.31s.303 1.703.91 2.31z" fill="#000"/></svg>